<?xml version="1.0" encoding="utf-8"?>
<!-- Generator: Adobe Illustrator 24.0.2, SVG Export Plug-In . SVG Version: 6.00 Build 0)  -->
<svg version="1.1" id="Layer_1" xmlns="http://www.w3.org/2000/svg" xmlns:xlink="http://www.w3.org/1999/xlink" x="0px" y="0px"
	 viewBox="0 0 1080 1080" style="enable-background:new 0 0 1080 1080;" xml:space="preserve">
<style type="text/css">
	.st0{fill:url(#SVGID_1_);}
	.st1{fill:url(#SVGID_2_);}
	.st2{fill:url(#SVGID_3_);}
	.st3{fill:url(#SVGID_4_);}
	.st4{opacity:0.6;fill:url(#SVGID_5_);}
</style>
<g>
	
		<linearGradient id="SVGID_1_" gradientUnits="userSpaceOnUse" x1="316.8134" y1="352.2431" x2="111.1351" y2="559.3111" gradientTransform="matrix(-1 0 0 1 886.1765 0)">
		<stop  offset="0" style="stop-color:#498DF4"/>
		<stop  offset="0.1702" style="stop-color:#4789F4"/>
		<stop  offset="0.3366" style="stop-color:#407DF4"/>
		<stop  offset="0.5013" style="stop-color:#356AF4"/>
		<stop  offset="0.6644" style="stop-color:#254EF4"/>
		<stop  offset="0.6662" style="stop-color:#254EF4"/>
	</linearGradient>
	<path class="st0" d="M578.16,274.18V449.8l162.02,162.02l50.24-50.24c20.85-20.85,20.85-54.66,0-75.51L578.33,274L578.16,274.18z"
		/>
	
		<linearGradient id="SVGID_2_" gradientUnits="userSpaceOnUse" x1="193.8753" y1="435.8527" x2="193.8753" y2="773.6779" gradientTransform="matrix(-1 0 0 1 886.1765 0)">
		<stop  offset="0" style="stop-color:#54D1CC"/>
		<stop  offset="1" style="stop-color:#4BA1EB"/>
	</linearGradient>
	<path class="st1" d="M578.28,597.83V773.5l0.18,0.18L790.8,561.33c20.71-20.71,20.71-54.28,0-74.98l-50.5-50.5l-87.77,87.72
		L578.28,597.83z"/>
	
		<linearGradient id="SVGID_3_" gradientUnits="userSpaceOnUse" x1="624.7059" y1="81.0426" x2="419.0276" y2="288.1105" gradientTransform="matrix(1 0 0 -1 -122.4333 776.4771)">
		<stop  offset="0" style="stop-color:#498DF4"/>
		<stop  offset="0.1702" style="stop-color:#4789F4"/>
		<stop  offset="0.3366" style="stop-color:#407DF4"/>
		<stop  offset="0.5013" style="stop-color:#356AF4"/>
		<stop  offset="0.6644" style="stop-color:#254EF4"/>
		<stop  offset="0.6662" style="stop-color:#254EF4"/>
	</linearGradient>
	<path class="st2" d="M493.48,773.5V597.87L331.46,435.85l-50.24,50.24c-20.85,20.85-20.85,54.66,0,75.51L493.3,773.68L493.48,773.5
		z"/>
	
		<linearGradient id="SVGID_4_" gradientUnits="userSpaceOnUse" x1="501.7681" y1="164.6519" x2="501.7681" y2="502.4771" gradientTransform="matrix(1 0 0 -1 -122.4333 776.4771)">
		<stop  offset="0" style="stop-color:#54D1CC"/>
		<stop  offset="1" style="stop-color:#4BA1EB"/>
	</linearGradient>
	<path class="st3" d="M493.36,449.85V274.18l-0.18-0.18L280.84,486.34c-20.71,20.71-20.71,54.28,0,74.98l50.5,50.5l87.77-87.72
		L493.36,449.85z"/>
	
		<radialGradient id="SVGID_5_" cx="539.5417" cy="736.5406" r="267.1993" gradientTransform="matrix(1.0003 0 0 0.1435 0.1144 759.6631)" gradientUnits="userSpaceOnUse">
		<stop  offset="0" style="stop-color:#85A7C9;stop-opacity:0.7"/>
		<stop  offset="1" style="stop-color:#85A7C9;stop-opacity:0"/>
	</radialGradient>
	<path class="st4" d="M916.96,865.35c0,21.35-168.85,38.65-377.14,38.65s-377.14-17.3-377.14-38.65s168.85-38.65,377.14-38.65
		S916.96,844,916.96,865.35z"/>
</g>
</svg>
